<svg width="17" height="10" viewBox="0 0 17 10" fill="none" xmlns="http://www.w3.org/2000/svg">
<path fill-rule="evenodd" clip-rule="evenodd" d="M0.381555 0.375866C0.619699 0.146745 0.939066 0.0215457 1.26948 0.0277798C1.59988 0.0340139 1.9143 0.171172 2.14363 0.409112L8.31091 6.9554L14.4782 0.409112C14.5903 0.285526 14.726 0.1857 14.8774 0.115548C15.0288 0.0453954 15.1928 0.00634555 15.3595 0.000711104C15.5263 -0.00492334 15.6925 0.022972 15.8483 0.0827455C16.004 0.142519 16.1462 0.232954 16.2664 0.348692C16.3866 0.464429 16.4823 0.603114 16.548 0.756528C16.6136 0.909943 16.6477 1.07497 16.6484 1.24182C16.649 1.40867 16.6162 1.57396 16.5518 1.72789C16.4874 1.88182 16.3928 2.02126 16.2735 2.13794L9.20857 9.61846C9.09227 9.73913 8.95283 9.8351 8.7986 9.90066C8.64436 9.96621 8.47849 10 8.31091 10C8.14332 10 7.97745 9.96621 7.82321 9.90066C7.66898 9.8351 7.52955 9.73913 7.41324 9.61846L0.348308 2.13794C0.119188 1.8998 -0.00601199 1.58043 0.00022214 1.25002C0.00645627 0.919614 0.143614 0.605198 0.381555 0.375866Z" fill="black"/>
</svg>
