<svg width="21" height="20" viewBox="0 0 21 20" fill="none" xmlns="http://www.w3.org/2000/svg">
<g clip-path="url(#clip0_1405_7743)">
<path d="M20.165 5.20445C20.0494 5.04047 19.8612 4.94233 19.6606 4.94233H6.47838L5.48022 1.50127C5.08891 0.145966 4.15908 0 3.7777 0H1.11678C0.775782 0 0.5 0.276403 0.5 0.616782C0.5 0.957161 0.776403 1.23356 1.11678 1.23356H3.77708C3.86156 1.23356 4.11808 1.23356 4.29324 1.83854L7.72623 14.4543C7.80076 14.7202 8.04362 14.904 8.32003 14.904H16.7047C16.9649 14.904 17.1972 14.7413 17.2848 14.4959L20.2401 5.76719C20.3085 5.57837 20.2799 5.36781 20.1644 5.20383L20.165 5.20445ZM16.2711 13.6711H8.78898L6.82559 6.17652H18.7842L16.2711 13.6711ZM15.0475 16.1544C14.1897 16.1544 13.4947 16.8494 13.4947 17.7072C13.4947 18.565 14.1897 19.26 15.0475 19.26C15.9053 19.26 16.6003 18.565 16.6003 17.7072C16.6003 16.8494 15.9053 16.1544 15.0475 16.1544ZM9.45731 16.1544C8.59953 16.1544 7.90449 16.8494 7.90449 17.7072C7.90449 18.565 8.59953 19.26 9.45731 19.26C10.3151 19.26 11.0101 18.565 11.0101 17.7072C11.0101 16.8494 10.3151 16.1544 9.45731 16.1544Z" fill="#777777"/>
</g>
<defs>
<clipPath id="clip0_1405_7743">
<rect width="20" height="20" fill="white" transform="translate(0.5)"/>
</clipPath>
</defs>
</svg>
