<svg width="21" height="20" viewBox="0 0 21 20" fill="none" xmlns="http://www.w3.org/2000/svg">
<path d="M11.789 17.2705L12.1925 16.589L11.2318 16.0203L10.8284 16.702L11.789 17.2705ZM8.80758 16.589L9.21101 17.2705L10.1716 16.702L9.76818 16.0203L8.80758 16.589ZM10.8284 16.702C10.6849 16.9443 10.3151 16.9443 10.1716 16.702L9.21101 17.2705C9.78672 18.2432 11.2133 18.2432 11.789 17.2705L10.8284 16.702ZM9.38374 3.11628H11.6163V2H9.38374V3.11628ZM17.3838 8.88374V9.62793H18.5V8.88374H17.3838ZM3.61628 9.62793V8.88374H2.5V9.62793H3.61628ZM2.5 9.62793C2.5 10.4872 2.4997 11.1595 2.5367 11.7018C2.57405 12.2492 2.65124 12.7047 2.82572 13.1259L3.85703 12.6987C3.74828 12.4362 3.68386 12.1163 3.6504 11.6258C3.61659 11.1304 3.61628 10.5024 3.61628 9.62793H2.5ZM7.37629 14.6449C6.44201 14.6288 5.95246 14.5694 5.56873 14.4104L5.14155 15.4417C5.7406 15.6899 6.4229 15.7449 7.35706 15.761L7.37629 14.6449ZM2.82572 13.1259C3.26002 14.1744 4.09305 15.0074 5.14155 15.4417L5.56873 14.4104C4.79375 14.0894 4.17804 13.4737 3.85703 12.6987L2.82572 13.1259ZM17.3838 9.62793C17.3838 10.5024 17.3835 11.1304 17.3497 11.6258C17.3162 12.1163 17.2517 12.4362 17.143 12.6987L18.1743 13.1259C18.3488 12.7047 18.426 12.2492 18.4634 11.7018C18.5003 11.1595 18.5 10.4872 18.5 9.62793H17.3838ZM13.6429 15.761C14.5771 15.7449 15.2595 15.6899 15.8585 15.4417L15.4313 14.4104C15.0476 14.5694 14.558 14.6288 13.6237 14.6449L13.6429 15.761ZM17.143 12.6987C16.822 13.4737 16.2063 14.0894 15.4313 14.4104L15.8585 15.4417C16.907 15.0074 17.74 14.1744 18.1743 13.1259L17.143 12.6987ZM11.6163 3.11628C12.8451 3.11628 13.7276 3.11687 14.4159 3.18231C15.0959 3.24697 15.5286 3.37097 15.8735 3.58235L16.4568 2.63057C15.9069 2.29363 15.2832 2.14347 14.5215 2.07105C13.7681 1.99941 12.8235 2 11.6163 2V3.11628ZM18.5 8.88374C18.5 7.67652 18.5006 6.73192 18.429 5.97851C18.3566 5.2168 18.2064 4.59309 17.8695 4.04326L16.9177 4.62652C17.1291 4.97148 17.2531 5.40417 17.3177 6.08417C17.3832 6.77248 17.3838 7.6549 17.3838 8.88374H18.5ZM15.8735 3.58235C16.2991 3.84315 16.6569 4.20095 16.9177 4.62652L17.8695 4.04326C17.5167 3.46749 17.0326 2.9834 16.4568 2.63057L15.8735 3.58235ZM9.38374 2C8.17652 2 7.23192 1.99941 6.47851 2.07105C5.7168 2.14347 5.09309 2.29363 4.54326 2.63057L5.12652 3.58235C5.47148 3.37097 5.90417 3.24697 6.58417 3.18231C7.27248 3.11687 8.1549 3.11628 9.38374 3.11628V2ZM3.61628 8.88374C3.61628 7.6549 3.61687 6.77248 3.68231 6.08417C3.74697 5.40417 3.87097 4.97148 4.08235 4.62652L3.13057 4.04326C2.79363 4.59309 2.64347 5.2168 2.57105 5.97851C2.49941 6.73192 2.5 7.67652 2.5 8.88374H3.61628ZM4.54326 2.63057C3.96749 2.9834 3.4834 3.46749 3.13057 4.04326L4.08235 4.62652C4.34315 4.20095 4.70095 3.84315 5.12652 3.58235L4.54326 2.63057ZM9.76818 16.0203C9.61711 15.7651 9.4845 15.5398 9.35553 15.3629C9.21964 15.1765 9.06389 15.0087 8.84782 14.883L8.2866 15.848C8.32188 15.8685 8.36995 15.9059 8.45339 16.0203C8.54371 16.1443 8.64576 16.3156 8.80758 16.589L9.76818 16.0203ZM7.35706 15.761C7.68383 15.7667 7.8908 15.7708 8.04858 15.7882C8.19601 15.8046 8.25315 15.8285 8.2866 15.848L8.84782 14.883C8.62995 14.7563 8.40324 14.7044 8.17143 14.6787C7.94998 14.6542 7.68234 14.6502 7.37629 14.6449L7.35706 15.761ZM12.1925 16.589C12.3542 16.3156 12.4563 16.1443 12.5466 16.0203C12.63 15.9059 12.6781 15.8685 12.7134 15.848L12.1522 14.883C11.9362 15.0087 11.7803 15.1765 11.6445 15.3629C11.5155 15.5398 11.3829 15.7651 11.2318 16.0203L12.1925 16.589ZM13.6237 14.6449C13.3177 14.6502 13.0501 14.6542 12.8286 14.6787C12.5968 14.7044 12.3701 14.7563 12.1522 14.883L12.7134 15.848C12.7469 15.8285 12.804 15.8046 12.9514 15.7882C13.1092 15.7708 13.3162 15.7667 13.6429 15.761L13.6237 14.6449Z" fill="#777777"/>
<path opacity="0.5" d="M7.1665 9.16602H7.174M10.4923 9.16602H10.4998M13.8257 9.16602H13.8332" stroke="#777777" stroke-width="2" stroke-linecap="round" stroke-linejoin="round"/>
</svg>
