<svg width="34" height="34" viewBox="0 0 34 34" fill="none" xmlns="http://www.w3.org/2000/svg">
<path opacity="0.2" d="M21.2501 5.3125C21.9413 6.23127 22.3142 7.35026 22.3125 8.5V9.5625H11.6875V8.5C11.6858 7.35026 12.0587 6.23127 12.7499 5.3125H7.4375C7.29797 5.3125 7.1598 5.33998 7.03089 5.39337C6.90198 5.44676 6.78485 5.52503 6.68619 5.62369C6.58753 5.72235 6.50926 5.83948 6.45587 5.96839C6.40248 6.0973 6.375 6.23547 6.375 6.375V28.6875C6.375 28.827 6.40248 28.9652 6.45587 29.0941C6.50926 29.223 6.58753 29.3401 6.68619 29.4388C6.78485 29.5375 6.90198 29.6157 7.03089 29.6691C7.1598 29.7225 7.29797 29.75 7.4375 29.75H26.5625C26.702 29.75 26.8402 29.7225 26.9691 29.6691C27.098 29.6157 27.2151 29.5375 27.3138 29.4388C27.4125 29.3401 27.4907 29.223 27.5441 29.0941C27.5975 28.9652 27.625 28.827 27.625 28.6875V6.375C27.625 6.23547 27.5975 6.0973 27.5441 5.96839C27.4907 5.83948 27.4125 5.72235 27.3138 5.62369C27.2151 5.52503 27.098 5.44676 26.9691 5.39337C26.8402 5.33998 26.702 5.3125 26.5625 5.3125H21.2501Z" fill="#E94C2A"/>
<path d="M12.75 20.1875H21.25" stroke="#E94C2A" stroke-width="1.25" stroke-linecap="round" stroke-linejoin="round"/>
<path d="M12.75 15.9375H21.25" stroke="#E94C2A" stroke-width="1.25" stroke-linecap="round" stroke-linejoin="round"/>
<path d="M21.2503 5.3125H26.5625C26.8443 5.3125 27.1145 5.42444 27.3138 5.6237C27.5131 5.82296 27.625 6.09321 27.625 6.375V28.6875C27.625 28.9693 27.5131 29.2395 27.3138 29.4388C27.1145 29.6381 26.8443 29.75 26.5625 29.75H7.4375C7.15571 29.75 6.88546 29.6381 6.6862 29.4388C6.48694 29.2395 6.375 28.9693 6.375 28.6875V6.375C6.375 6.09321 6.48694 5.82296 6.6862 5.6237C6.88546 5.42444 7.15571 5.3125 7.4375 5.3125H12.7497" stroke="#E94C2A" stroke-width="1.25" stroke-linecap="round" stroke-linejoin="round"/>
<path d="M11.6875 9.5625V8.5C11.6875 7.09104 12.2472 5.73978 13.2435 4.7435C14.2398 3.74721 15.591 3.1875 17 3.1875C18.409 3.1875 19.7602 3.74721 20.7565 4.7435C21.7528 5.73978 22.3125 7.09104 22.3125 8.5V9.5625H11.6875Z" stroke="#E94C2A" stroke-width="1.25" stroke-linecap="round" stroke-linejoin="round"/>
</svg>
