<svg width="34" height="34" viewBox="0 0 34 34" fill="none" xmlns="http://www.w3.org/2000/svg">
<path opacity="0.2" d="M17 29.75C24.0416 29.75 29.75 24.0416 29.75 17C29.75 9.95837 24.0416 4.25 17 4.25C9.95837 4.25 4.25 9.95837 4.25 17C4.25 24.0416 9.95837 29.75 17 29.75Z" fill="#E94C2A"/>
<path d="M17 9.5625V11.6875" stroke="#E94C2A" stroke-width="1.25" stroke-linecap="round" stroke-linejoin="round"/>
<path d="M17 22.3125V24.4375" stroke="#E94C2A" stroke-width="1.25" stroke-linecap="round" stroke-linejoin="round"/>
<path d="M17 29.75C24.0416 29.75 29.75 24.0416 29.75 17C29.75 9.95837 24.0416 4.25 17 4.25C9.95837 4.25 4.25 9.95837 4.25 17C4.25 24.0416 9.95837 29.75 17 29.75Z" stroke="#E94C2A" stroke-width="1.25" stroke-linecap="round" stroke-linejoin="round"/>
<path d="M13.8125 22.3125H18.5938C19.2982 22.3125 19.9739 22.0326 20.472 21.5345C20.9701 21.0364 21.25 20.3607 21.25 19.6562C21.25 18.9518 20.9701 18.2761 20.472 17.778C19.9739 17.2799 19.2982 17 18.5938 17H15.4062C14.7018 17 14.0261 16.7201 13.528 16.222C13.0299 15.7239 12.75 15.0482 12.75 14.3438C12.75 13.6393 13.0299 12.9636 13.528 12.4655C14.0261 11.9674 14.7018 11.6875 15.4062 11.6875H20.1875" stroke="#E94C2A" stroke-width="1.25" stroke-linecap="round" stroke-linejoin="round"/>
</svg>
