<svg width="34" height="34" viewBox="0 0 34 34" fill="none" xmlns="http://www.w3.org/2000/svg">
<path opacity="0.2" d="M30.4998 14.0731L27.0538 12.1602C26.8121 11.657 26.533 11.1726 26.2187 10.7112L26.2851 6.76825C24.8236 5.44298 23.0948 4.44656 21.2155 3.84618L17.8358 5.87404C17.2792 5.8317 16.7202 5.83125 16.1635 5.87271L12.782 3.84375C10.9035 4.44682 9.17619 5.44574 7.7166 6.77311L7.78294 10.7139C7.46794 11.1748 7.18803 11.6587 6.9456 12.1616L3.49767 14.0756C3.08074 16.0039 3.08218 17.9992 3.50188 19.927L6.94787 21.8399C7.18955 22.3432 7.46869 22.8275 7.78294 23.2889L7.71654 27.2319C9.17807 28.5572 10.9068 29.5536 12.7862 30.154L16.1658 28.1261C16.7225 28.1684 17.2815 28.1689 17.8382 28.1274L21.2197 30.1564C23.0982 29.5533 24.8255 28.5544 26.2851 27.227L26.2187 23.2862C26.5337 22.8254 26.8137 22.3414 27.0561 21.8386L30.504 19.9246C30.9209 17.9962 30.9195 16.0009 30.4998 14.0731ZM17.0008 23.3751C15.74 23.3751 14.5074 23.0012 13.4591 22.3007C12.4107 21.6002 11.5936 20.6046 11.1111 19.4397C10.6286 18.2748 10.5023 16.993 10.7483 15.7564C10.9943 14.5197 11.6015 13.3838 12.493 12.4923C13.3846 11.6007 14.5205 10.9935 15.7571 10.7476C16.9938 10.5016 18.2756 10.6278 19.4404 11.1103C20.6053 11.5928 21.601 12.4099 22.3014 13.4583C23.0019 14.5067 23.3758 15.7392 23.3758 17.0001C23.3758 17.8373 23.2109 18.6662 22.8906 19.4397C22.5702 20.2131 22.1006 20.9159 21.5086 21.5079C20.9167 22.0999 20.2139 22.5694 19.4404 22.8898C18.667 23.2102 17.838 23.3751 17.0008 23.3751Z" fill="#E94C2A"/>
<path d="M17.0007 23.375C20.5215 23.375 23.3757 20.5208 23.3757 17C23.3757 13.4792 20.5215 10.625 17.0007 10.625C13.4799 10.625 10.6257 13.4792 10.6257 17C10.6257 20.5208 13.4799 23.375 17.0007 23.375Z" stroke="#E94C2A" stroke-width="1.25" stroke-linecap="round" stroke-linejoin="round"/>
<path d="M26.2186 10.7112C26.5328 11.1726 26.812 11.657 27.0536 12.1602L30.4996 14.0732C30.9194 16.0009 30.9208 17.9962 30.5039 19.9246L27.056 21.8386C26.8135 22.3414 26.5336 22.8253 26.2186 23.2862L26.285 27.227C24.8254 28.5544 23.0981 29.5533 21.2196 30.1564L17.8381 28.1274C17.2814 28.1689 16.7223 28.1684 16.1657 28.1261L12.786 30.1539C10.9067 29.5536 9.17796 28.5572 7.71644 27.2319L7.78281 23.2889C7.46857 22.8275 7.18943 22.3432 6.94776 21.8399L3.50178 19.927C3.08205 17.9993 3.08061 16.0039 3.49755 14.0756L6.94546 12.1616C7.18792 11.6587 7.46782 11.1748 7.78279 10.7139L7.71646 6.77312C9.17607 5.44575 10.9034 4.44684 12.7818 3.84375L16.1633 5.87272C16.7201 5.83127 17.2791 5.83171 17.8357 5.87404L21.2154 3.8462C23.0947 4.44657 24.8235 5.44298 26.285 6.76824L26.2186 10.7112Z" stroke="#E94C2A" stroke-width="1.25" stroke-linecap="round" stroke-linejoin="round"/>
</svg>
