<svg width="34" height="34" viewBox="0 0 34 34" fill="none" xmlns="http://www.w3.org/2000/svg">
<path opacity="0.2" d="M27.6243 11.6875H6.37427C6.09248 11.6875 5.82222 11.7994 5.62297 11.9987C5.42371 12.198 5.31177 12.4682 5.31177 12.75V27.625C5.31177 27.9068 5.42371 28.177 5.62297 28.3763C5.82222 28.5756 6.09248 28.6875 6.37427 28.6875H27.6243C27.9061 28.6875 28.1763 28.5756 28.3756 28.3763C28.5748 28.177 28.6868 27.9068 28.6868 27.625V12.75C28.6868 12.4682 28.5748 12.198 28.3756 11.9987C28.1763 11.7994 27.9061 11.6875 27.6243 11.6875ZM16.9993 21.25C16.4739 21.25 15.9604 21.0942 15.5235 20.8023C15.0867 20.5105 14.7463 20.0956 14.5452 19.6103C14.3442 19.1249 14.2916 18.5908 14.3941 18.0755C14.4965 17.5603 14.7495 17.087 15.121 16.7155C15.4925 16.344 15.9658 16.091 16.4811 15.9885C16.9963 15.886 17.5304 15.9386 18.0158 16.1397C18.5011 16.3407 18.916 16.6812 19.2079 17.118C19.4997 17.5548 19.6555 18.0684 19.6555 18.5938C19.6555 19.2982 19.3757 19.9739 18.8775 20.472C18.3794 20.9701 17.7037 21.25 16.9993 21.25Z" fill="#E94C2A"/>
<path d="M16.9993 21.25C18.4663 21.25 19.6555 20.0608 19.6555 18.5938C19.6555 17.1267 18.4663 15.9375 16.9993 15.9375C15.5323 15.9375 14.343 17.1267 14.343 18.5938C14.343 20.0608 15.5323 21.25 16.9993 21.25Z" stroke="#E94C2A" stroke-width="1.25" stroke-linecap="round" stroke-linejoin="round"/>
<path d="M16.9993 21.25V24.4375" stroke="#E94C2A" stroke-width="1.25" stroke-linecap="round" stroke-linejoin="round"/>
<path d="M27.6243 11.6875H6.37427C5.78747 11.6875 5.31177 12.1632 5.31177 12.75V27.625C5.31177 28.2118 5.78747 28.6875 6.37427 28.6875H27.6243C28.2111 28.6875 28.6868 28.2118 28.6868 27.625V12.75C28.6868 12.1632 28.2111 11.6875 27.6243 11.6875Z" stroke="#E94C2A" stroke-width="1.25" stroke-linecap="round" stroke-linejoin="round"/>
<path d="M12.218 11.6875V6.90625C12.218 5.63818 12.7218 4.42205 13.6184 3.5254C14.5151 2.62874 15.7312 2.125 16.9993 2.125C18.2673 2.125 19.4835 2.62874 20.3801 3.5254C21.2768 4.42205 21.7805 5.63818 21.7805 6.90625V11.6875" stroke="#E94C2A" stroke-width="1.25" stroke-linecap="round" stroke-linejoin="round"/>
</svg>
