<svg width="34" height="34" viewBox="0 0 34 34" fill="none" xmlns="http://www.w3.org/2000/svg">
<path opacity="0.2" d="M26.562 7.43751V27.625C26.562 27.9068 26.4501 28.177 26.2508 28.3763C26.0516 28.5756 25.7813 28.6875 25.4995 28.6875H8.49951C8.21772 28.6875 7.94747 28.5756 7.74821 28.3763C7.54895 28.177 7.43701 27.9068 7.43701 27.625V7.4375L26.562 7.43751Z" fill="#E94C2A"/>
<path d="M28.687 7.4375L5.31201 7.43751" stroke="#E94C2A" stroke-width="1.25" stroke-linecap="round" stroke-linejoin="round"/>
<path d="M13.8125 13.8125V22.3125" stroke="#E94C2A" stroke-width="1.25" stroke-linecap="round" stroke-linejoin="round"/>
<path d="M20.1875 13.8125V22.3125" stroke="#E94C2A" stroke-width="1.25" stroke-linecap="round" stroke-linejoin="round"/>
<path d="M26.5625 7.4375V27.625C26.5625 27.9068 26.4506 28.177 26.2513 28.3763C26.052 28.5756 25.7818 28.6875 25.5 28.6875H8.5C8.21821 28.6875 7.94796 28.5756 7.7487 28.3763C7.54944 28.177 7.4375 27.9068 7.4375 27.625V7.4375" stroke="#E94C2A" stroke-width="1.25" stroke-linecap="round" stroke-linejoin="round"/>
<path d="M22.3125 7.4375V5.3125C22.3125 4.74891 22.0886 4.20841 21.6901 3.8099C21.2916 3.41138 20.7511 3.1875 20.1875 3.1875H13.8125C13.2489 3.1875 12.7084 3.41138 12.3099 3.8099C11.9114 4.20841 11.6875 4.74891 11.6875 5.3125V7.4375" stroke="#E94C2A" stroke-width="1.25" stroke-linecap="round" stroke-linejoin="round"/>
</svg>
